<svg width="121" height="40" viewBox="0 0 121 40" fill="none" xmlns="http://www.w3.org/2000/svg">
<g clip-path="url(#clip0)">
<path d="M110.779 7.9297e-06H9.59049C9.22164 7.9297e-06 8.85722 7.92976e-06 8.48935 0.00200793C8.18141 0.00400793 7.87592 0.00981793 7.56502 0.0147079C6.88961 0.0226097 6.21578 0.0816842 5.54939 0.191418C4.88395 0.303541 4.23934 0.514924 3.63739 0.818418C3.03617 1.12448 2.48682 1.52218 2.00926 1.99708C1.5292 2.47065 1.12903 3.01802 0.824146 3.61817C0.518417 4.21712 0.306424 4.85895 0.195488 5.52149C0.0834968 6.18319 0.0232336 6.85253 0.0152387 7.52349C0.00590436 7.83009 0.00491862 8.13771 0 8.44435V31.5586C0.00491862 31.8691 0.00590436 32.1699 0.0152387 32.4805C0.023236 33.1514 0.0834993 33.8207 0.195488 34.4824C0.306117 35.1453 0.518123 35.7875 0.824146 36.3867C1.12889 36.9849 1.52912 37.5301 2.00926 38.001C2.48501 38.478 3.03471 38.876 3.63739 39.1797C4.23934 39.484 4.88387 39.6967 5.54939 39.8105C6.21589 39.9194 6.88965 39.9785 7.56502 39.9873C7.87592 39.9941 8.18141 39.998 8.48935 39.998C8.85721 40 9.22166 40 9.59049 40H110.779C111.141 40 111.508 40 111.87 39.998C112.176 39.998 112.491 39.9941 112.797 39.9873C113.471 39.9789 114.144 39.9198 114.809 39.8105C115.476 39.6959 116.123 39.4833 116.728 39.1797C117.33 38.8758 117.879 38.4779 118.355 38.001C118.834 37.5282 119.235 36.9835 119.543 36.3867C119.847 35.7871 120.057 35.145 120.166 34.4824C120.278 33.8206 120.341 33.1515 120.353 32.4805C120.357 32.1699 120.357 31.8691 120.357 31.5586C120.365 31.1953 120.365 30.834 120.365 30.4648V9.53614C120.365 9.16993 120.365 8.80665 120.357 8.44435C120.357 8.13771 120.357 7.83009 120.353 7.52345C120.341 6.85243 120.278 6.18324 120.166 5.52145C120.057 4.85929 119.847 4.21751 119.543 3.61813C118.922 2.4152 117.938 1.43603 116.728 0.818328C116.123 0.515575 115.476 0.304248 114.809 0.191328C114.144 0.0811107 113.471 0.0220157 112.797 0.0145679C112.491 0.00968793 112.176 0.00382793 111.87 0.00187793C111.508 -0.00012207 111.141 -0.00012207 110.779 -0.00012207V7.9297e-06Z" fill="black"/>
<path d="M8.49419 39.124C8.18773 39.124 7.88867 39.1201 7.58461 39.1133C6.95473 39.1052 6.32631 39.0506 5.70453 38.9502C5.12475 38.8509 4.56309 38.6663 4.03809 38.4023C3.51791 38.1405 3.04346 37.7973 2.63291 37.3857C2.21643 36.979 1.86969 36.5073 1.60643 35.9892C1.34027 35.4678 1.15607 34.9089 1.06025 34.332C0.956774 33.7121 0.900788 33.0853 0.892777 32.457C0.8864 32.2461 0.878052 31.5439 0.878052 31.5439V8.44336C0.878052 8.44336 0.886944 7.75195 0.892828 7.54882C0.900498 6.9215 0.956159 6.29568 1.05933 5.67675C1.15532 5.09827 1.33967 4.53777 1.60597 4.01465C1.86826 3.49697 2.21308 3.02488 2.62705 2.6167C3.04056 2.20464 3.51653 1.85963 4.0376 1.59423C4.56139 1.33112 5.12198 1.14776 5.7006 1.05029C6.32442 0.94886 6.95502 0.89402 7.58708 0.886233L8.49469 0.874023H111.865L112.783 0.886723C113.41 0.894123 114.034 0.948473 114.653 1.04931C115.237 1.148 115.803 1.33264 116.333 1.59716C117.377 2.13201 118.226 2.97819 118.762 4.01709C119.024 4.5366 119.206 5.09253 119.301 5.66601C119.405 6.29001 119.464 6.92076 119.475 7.55322C119.478 7.83642 119.478 8.14062 119.478 8.44336C119.486 8.81836 119.486 9.17529 119.486 9.53515V30.4638C119.486 30.8271 119.486 31.1816 119.478 31.539C119.478 31.8642 119.478 32.1621 119.474 32.4687C119.463 33.0899 119.405 33.7094 119.303 34.3222C119.209 34.9033 119.026 35.4665 118.759 35.9922C118.494 36.5046 118.15 36.9723 117.738 37.3779C117.327 37.7917 116.852 38.137 116.33 38.4004C115.802 38.6664 115.236 38.8518 114.653 38.9502C114.031 39.0512 113.402 39.1057 112.772 39.1133C112.478 39.1201 112.169 39.124 111.87 39.124L110.779 39.126L8.49419 39.124Z" fill="white"/>
<path d="M25.1431 19.8893C25.1543 19.0214 25.3862 18.1703 25.8172 17.4154C26.2482 16.6605 26.8642 16.0262 27.608 15.5716C27.1355 14.9007 26.5121 14.3486 25.7875 13.9591C25.0628 13.5696 24.2567 13.3535 23.4333 13.3279C21.6769 13.1446 19.9741 14.3728 19.079 14.3728C18.1666 14.3728 16.7885 13.3461 15.3045 13.3764C14.3447 13.4072 13.4092 13.6847 12.5893 14.1819C11.7694 14.679 11.0929 15.3788 10.6259 16.2131C8.60306 19.6951 10.112 24.8125 12.0497 27.6271C13.0193 29.0053 14.1523 30.5448 15.635 30.4903C17.0858 30.4304 17.6277 29.5705 19.379 29.5705C21.114 29.5705 21.6224 30.4903 23.1351 30.4555C24.6919 30.4304 25.6728 29.0712 26.6083 27.6799C27.3049 26.6979 27.8409 25.6125 28.1966 24.464C27.2921 24.0837 26.5202 23.4471 25.9772 22.6336C25.4342 21.8201 25.1441 20.8657 25.1431 19.8893Z" fill="black"/>
<path d="M22.2857 11.4768C23.1346 10.4637 23.5528 9.1616 23.4515 7.84692C22.1547 7.98234 20.9567 8.59854 20.0964 9.57274C19.6758 10.0487 19.3536 10.6023 19.1484 11.2021C18.9431 11.8019 18.8587 12.436 18.9001 13.0682C19.5488 13.0749 20.1905 12.9351 20.7769 12.6594C21.3634 12.3838 21.8793 11.9794 22.2857 11.4768Z" fill="black"/>
<path d="M42.5495 27.1394H37.7883L36.645 30.4959H34.6284L39.138 18.0779H41.2332L45.7428 30.4959H43.6918L42.5495 27.1394ZM38.2815 25.5906H42.0554L40.195 20.1433H40.1429L38.2815 25.5906Z" fill="black"/>
<path d="M55.482 25.9697C55.482 28.7832 53.9673 30.5908 51.6816 30.5908C51.1026 30.6209 50.5267 30.4883 50.02 30.2082C49.5132 29.928 49.0961 29.5117 48.8163 29.0068H48.773V33.4912H46.9037V21.4423H48.7131V22.9482H48.7475C49.0401 22.4457 49.4643 22.0316 49.9749 21.7497C50.4855 21.4679 51.0634 21.3289 51.6472 21.3476C53.9585 21.3476 55.482 23.164 55.482 25.9697ZM53.5607 25.9697C53.5607 24.1367 52.6079 22.9316 51.1541 22.9316C49.7259 22.9316 48.7652 24.1621 48.7652 25.9697C48.7652 27.7939 49.7259 29.0156 51.1541 29.0156C52.6079 29.0156 53.5606 27.8193 53.5606 25.9697H53.5607Z" fill="black"/>
<path d="M65.5059 25.9697C65.5059 28.7832 63.9907 30.5908 61.705 30.5908C61.1259 30.6209 60.5501 30.4883 60.0433 30.2082C59.5366 29.928 59.1194 29.5117 58.8397 29.0068H58.7964V33.4912H56.9271V21.4423H58.7365V22.9482H58.7709C59.0635 22.4457 59.4877 22.0316 59.9983 21.7497C60.5089 21.4679 61.0868 21.3289 61.6705 21.3476C63.9819 21.3476 65.5059 23.164 65.5059 25.9697ZM63.5841 25.9697C63.5841 24.1367 62.6312 22.9316 61.1775 22.9316C59.7492 22.9316 58.7886 24.1621 58.7886 25.9697C58.7886 27.7939 59.7492 29.0156 61.1775 29.0156C62.6312 29.0156 63.5841 27.8193 63.5841 25.9697Z" fill="black"/>
<path d="M72.1292 27.0361C72.2677 28.2675 73.471 29.0761 75.1154 29.0761C76.6909 29.0761 77.8245 28.2675 77.8245 27.1571C77.8245 26.1932 77.1408 25.6161 75.522 25.2206L73.9032 24.8329C71.6096 24.2821 70.5448 23.2157 70.5448 21.4852C70.5448 19.3427 72.4229 17.871 75.0888 17.871C77.7292 17.871 79.5386 19.3427 79.5995 21.4852H77.7125C77.5995 20.246 76.5691 19.4979 75.0633 19.4979C73.5574 19.4979 72.527 20.2548 72.527 21.3563C72.527 22.2343 73.1852 22.7509 74.7951 23.1463L76.1713 23.4823C78.734 24.0848 79.7979 25.1083 79.7979 26.9247C79.7979 29.2479 77.9374 30.703 74.9768 30.703C72.2068 30.703 70.3365 29.2821 70.2157 27.036L72.1292 27.0361Z" fill="black"/>
<path d="M83.8342 19.2998V21.4424H85.5659V22.9141H83.8342V27.9053C83.8342 28.6807 84.1809 29.042 84.9422 29.042C85.1478 29.0384 85.353 29.0241 85.5571 28.999V30.4619C85.2148 30.5255 84.867 30.5543 84.5188 30.5478C82.6751 30.5478 81.9561 29.8593 81.9561 28.1035V22.9141H80.632V21.4424H81.956V19.2998H83.8342Z" fill="black"/>
<path d="M86.5679 25.9697C86.5679 23.1211 88.2554 21.3311 90.8869 21.3311C93.5273 21.3311 95.207 23.1211 95.207 25.9697C95.207 28.8262 93.5362 30.6084 90.8869 30.6084C88.2387 30.6084 86.5679 28.8262 86.5679 25.9697ZM93.3024 25.9697C93.3024 24.0156 92.4016 22.8623 90.8869 22.8623C89.3723 22.8623 88.4715 24.0244 88.4715 25.9697C88.4715 27.9316 89.3723 29.0762 90.8869 29.0762C92.4016 29.0762 93.3024 27.9316 93.3024 25.9697H93.3024Z" fill="black"/>
<path d="M96.7481 21.4423H98.531V22.9833H98.5742C98.6948 22.502 98.9784 22.0766 99.3773 21.7788C99.7762 21.4809 100.266 21.3286 100.765 21.3475C100.98 21.3468 101.195 21.37 101.405 21.4169V23.1551C101.133 23.0725 100.849 23.0346 100.565 23.0428C100.294 23.0319 100.023 23.0795 99.7716 23.1824C99.5203 23.2853 99.2944 23.441 99.1094 23.6389C98.9243 23.8368 98.7845 24.0721 98.6996 24.3288C98.6147 24.5855 98.5866 24.8574 98.6174 25.1258V30.496H96.7481L96.7481 21.4423Z" fill="black"/>
<path d="M110.024 27.8369C109.772 29.4805 108.162 30.6084 106.102 30.6084C103.453 30.6084 101.809 28.8437 101.809 26.0127C101.809 23.1729 103.462 21.3311 106.024 21.3311C108.543 21.3311 110.128 23.0518 110.128 25.7969V26.4336H103.696V26.5459C103.666 26.8791 103.708 27.2148 103.819 27.5306C103.93 27.8464 104.107 28.1352 104.339 28.3778C104.57 28.6203 104.851 28.8111 105.163 28.9374C105.474 29.0637 105.809 29.1226 106.146 29.1103C106.587 29.1515 107.031 29.0498 107.41 28.8203C107.789 28.5909 108.083 28.246 108.249 27.8369L110.024 27.8369ZM103.705 25.1348H108.258C108.274 24.8352 108.229 24.5354 108.123 24.2541C108.018 23.9729 107.856 23.7164 107.646 23.5006C107.436 23.2849 107.184 23.1145 106.905 23.0003C106.625 22.8861 106.326 22.8305 106.024 22.8369C105.72 22.8351 105.418 22.8933 105.136 23.008C104.854 23.1227 104.598 23.2918 104.383 23.5054C104.167 23.7191 103.996 23.973 103.88 24.2527C103.763 24.5323 103.704 24.8321 103.705 25.1348V25.1348Z" fill="black"/>
<path d="M38.0476 8.73089C38.4395 8.70293 38.8328 8.76179 39.199 8.90323C39.5653 9.04466 39.8954 9.26514 40.1655 9.54876C40.4357 9.83239 40.6392 10.1721 40.7613 10.5434C40.8834 10.9146 40.9211 11.3082 40.8717 11.6957C40.8717 13.602 39.8354 14.6977 38.0476 14.6977H35.8798V8.73089H38.0476ZM36.8119 13.8539H37.9435C38.2236 13.8705 38.5038 13.8249 38.7638 13.7203C39.0239 13.6157 39.2572 13.4547 39.4468 13.2491C39.6364 13.0436 39.7775 12.7986 39.8599 12.532C39.9422 12.2653 39.9637 11.9838 39.9228 11.7079C39.9607 11.4331 39.937 11.1533 39.8534 10.8886C39.7698 10.624 39.6284 10.381 39.4392 10.177C39.2501 9.9731 39.0179 9.81329 38.7593 9.70905C38.5007 9.60481 38.2221 9.55873 37.9435 9.5741H36.8119V13.8539Z" fill="black"/>
<path d="M41.9246 12.4445C41.8961 12.1486 41.9302 11.85 42.0246 11.568C42.1189 11.2859 42.2716 11.0266 42.4727 10.8066C42.6738 10.5866 42.919 10.4108 43.1924 10.2906C43.4658 10.1703 43.7616 10.1082 44.0606 10.1082C44.3596 10.1082 44.6553 10.1703 44.9287 10.2906C45.2022 10.4108 45.4473 10.5866 45.6484 10.8066C45.8495 11.0266 46.0022 11.2859 46.0966 11.568C46.191 11.85 46.225 12.1486 46.1965 12.4445C46.2255 12.7408 46.1919 13.0397 46.0978 13.3223C46.0036 13.6048 45.8511 13.8646 45.6499 14.085C45.4487 14.3054 45.2034 14.4816 44.9297 14.6021C44.656 14.7226 44.3599 14.7849 44.0606 14.7849C43.7612 14.7849 43.4651 14.7226 43.1914 14.6021C42.9177 14.4816 42.6724 14.3054 42.4712 14.085C42.2701 13.8646 42.1175 13.6048 42.0234 13.3223C41.9292 13.0397 41.8956 12.7408 41.9246 12.4445ZM45.2771 12.4445C45.2771 11.4685 44.8361 10.8977 44.062 10.8977C43.2851 10.8977 42.848 11.4685 42.848 12.4445C42.848 13.4284 43.2851 13.9948 44.062 13.9948C44.8361 13.9948 45.2771 13.4245 45.2771 12.4445H45.2771Z" fill="black"/>
<path d="M51.8751 14.6979H50.9478L50.0117 11.3815H49.941L49.0088 14.6979H48.0903L46.8419 10.1949H47.7485L48.5599 13.6309H48.6267L49.5579 10.1949H50.4154L51.3466 13.6309H51.4173L52.2248 10.1949H53.1186L51.8751 14.6979Z" fill="black"/>
<path d="M54.1687 10.195H55.0292V10.9103H55.096C55.2093 10.6534 55.4004 10.438 55.6427 10.2942C55.885 10.1504 56.1663 10.0853 56.4476 10.1081C56.668 10.0916 56.8893 10.1246 57.0951 10.2047C57.3008 10.2848 57.4859 10.4099 57.6364 10.5708C57.787 10.7316 57.8992 10.9241 57.9648 11.1339C58.0304 11.3437 58.0476 11.5655 58.0153 11.7829V14.6979H57.1214V12.006C57.1214 11.2824 56.8051 10.9225 56.1441 10.9225C55.9944 10.9156 55.8451 10.9409 55.7062 10.9968C55.5673 11.0526 55.4423 11.1376 55.3395 11.246C55.2368 11.3544 55.1589 11.4836 55.1111 11.6247C55.0633 11.7658 55.0467 11.9156 55.0626 12.0636V14.6979H54.1687L54.1687 10.195Z" fill="black"/>
<path d="M59.4397 8.43713H60.3336V14.6979H59.4397V8.43713Z" fill="black"/>
<path d="M61.5762 12.4445C61.5477 12.1486 61.5818 11.85 61.6762 11.5679C61.7706 11.2858 61.9233 11.0265 62.1244 10.8065C62.3256 10.5865 62.5707 10.4107 62.8442 10.2904C63.1176 10.1702 63.4134 10.108 63.7124 10.108C64.0114 10.108 64.3071 10.1702 64.5806 10.2904C64.8541 10.4107 65.0992 10.5865 65.3004 10.8065C65.5015 11.0265 65.6542 11.2858 65.7486 11.5679C65.843 11.85 65.8771 12.1486 65.8486 12.4445C65.8776 12.7407 65.8439 13.0397 65.7497 13.3222C65.6556 13.6048 65.503 13.8646 65.3018 14.085C65.1006 14.3054 64.8553 14.4815 64.5816 14.602C64.3078 14.7226 64.0118 14.7848 63.7124 14.7848C63.413 14.7848 63.117 14.7226 62.8432 14.602C62.5695 14.4815 62.3242 14.3054 62.123 14.085C61.9218 13.8646 61.7692 13.6048 61.675 13.3222C61.5809 13.0397 61.5472 12.7407 61.5762 12.4445ZM64.9287 12.4445C64.9287 11.4684 64.4876 10.8976 63.7136 10.8976C62.9366 10.8976 62.4996 11.4684 62.4996 12.4445C62.4996 13.4284 62.9367 13.9948 63.7136 13.9948C64.4877 13.9948 64.9287 13.4245 64.9287 12.4445H64.9287Z" fill="black"/>
<path d="M66.7896 13.4244C66.7896 12.6139 67.3967 12.1466 68.4742 12.0802L69.7011 12.0099V11.6212C69.7011 11.1456 69.3848 10.8771 68.7738 10.8771C68.2748 10.8771 67.9291 11.0592 67.8298 11.3776H66.9645C67.0558 10.6041 67.7876 10.108 68.8151 10.108C69.9506 10.108 70.591 10.67 70.591 11.6212V14.6979H69.7306V14.0651H69.6598C69.5163 14.2921 69.3147 14.4771 69.0757 14.6013C68.8367 14.7255 68.5688 14.7844 68.2994 14.7721C68.1092 14.7917 67.9171 14.7716 67.7352 14.7129C67.5534 14.6542 67.386 14.5582 67.2437 14.4313C67.1015 14.3043 66.9876 14.1491 66.9094 13.9757C66.8312 13.8023 66.7904 13.6145 66.7896 13.4244ZM69.7011 13.0397V12.6632L68.595 12.7335C67.9713 12.775 67.6884 12.986 67.6884 13.3829C67.6884 13.7882 68.042 14.024 68.5283 14.024C68.6707 14.0384 68.8147 14.0241 68.9515 13.982C69.0883 13.9399 69.2152 13.8709 69.3246 13.779C69.434 13.6872 69.5237 13.5744 69.5884 13.4474C69.6531 13.3204 69.6914 13.1817 69.7011 13.0397Z" fill="black"/>
<path d="M71.7658 12.4445C71.7658 11.0216 72.5015 10.1203 73.6459 10.1203C73.929 10.1073 74.2099 10.1747 74.4558 10.3146C74.7018 10.4545 74.9026 10.6611 75.0348 10.9103H75.1016V8.43713H75.9955V14.6979H75.139V13.9864H75.0682C74.9258 14.2339 74.718 14.438 74.4673 14.5765C74.2166 14.7149 73.9325 14.7826 73.6459 14.7721C72.4937 14.7721 71.7658 13.8707 71.7658 12.4445ZM72.6892 12.4445C72.6892 13.3996 73.142 13.9743 73.8994 13.9743C74.6527 13.9743 75.1184 13.3913 75.1184 12.4484C75.1184 11.5099 74.6479 10.9186 73.8994 10.9186C73.1469 10.9186 72.6892 11.4972 72.6892 12.4445H72.6892Z" fill="black"/>
<path d="M79.6938 12.4445C79.6653 12.1486 79.6994 11.85 79.7938 11.568C79.8882 11.2859 80.0408 11.0266 80.2419 10.8066C80.443 10.5866 80.6882 10.4108 80.9616 10.2906C81.2351 10.1703 81.5308 10.1082 81.8298 10.1082C82.1288 10.1082 82.4245 10.1703 82.6979 10.2906C82.9714 10.4108 83.2165 10.5866 83.4176 10.8066C83.6187 11.0266 83.7714 11.2859 83.8658 11.568C83.9602 11.85 83.9942 12.1486 83.9657 12.4445C83.9948 12.7408 83.9611 13.0397 83.867 13.3223C83.7728 13.6048 83.6203 13.8646 83.4191 14.085C83.2179 14.3054 82.9726 14.4816 82.6989 14.6021C82.4252 14.7226 82.1291 14.7849 81.8298 14.7849C81.5304 14.7849 81.2344 14.7226 80.9606 14.6021C80.6869 14.4816 80.4416 14.3054 80.2404 14.085C80.0393 13.8646 79.8867 13.6048 79.7926 13.3223C79.6984 13.0397 79.6648 12.7408 79.6938 12.4445ZM83.0463 12.4445C83.0463 11.4685 82.6053 10.8977 81.8313 10.8977C81.0543 10.8977 80.6172 11.4685 80.6172 12.4445C80.6172 13.4284 81.0543 13.9948 81.8313 13.9948C82.6053 13.9948 83.0463 13.4245 83.0463 12.4445Z" fill="black"/>
<path d="M85.165 10.195H86.0255V10.9103H86.0923C86.2056 10.6534 86.3967 10.438 86.639 10.2942C86.8813 10.1504 87.1627 10.0853 87.4439 10.1081C87.6643 10.0916 87.8856 10.1246 88.0914 10.2047C88.2972 10.2848 88.4822 10.4099 88.6328 10.5708C88.7834 10.7316 88.8956 10.9241 88.9612 11.1339C89.0267 11.3437 89.044 11.5655 89.0117 11.7829V14.6979H88.1178V12.006C88.1178 11.2824 87.8015 10.9225 87.1404 10.9225C86.9908 10.9156 86.8414 10.9409 86.7025 10.9968C86.5637 11.0526 86.4386 11.1376 86.3359 11.246C86.2332 11.3544 86.1552 11.4836 86.1074 11.6247C86.0596 11.7658 86.0431 11.9156 86.0589 12.0636V14.6979H85.165V10.195Z" fill="black"/>
<path d="M94.0627 9.07312V10.2147H95.044V10.9633H94.0627V13.2787C94.0627 13.7504 94.2581 13.9569 94.7031 13.9569C94.817 13.9565 94.9308 13.9497 95.044 13.9364V14.6766C94.8835 14.7052 94.7208 14.7204 94.5577 14.722C93.5637 14.722 93.1678 14.3744 93.1678 13.5062V10.9632H92.4488V10.2147H93.1678V9.07312H94.0627Z" fill="black"/>
<path d="M96.2648 8.43713H97.1508V10.9186H97.2215C97.3403 10.6593 97.5367 10.4427 97.7838 10.2983C98.031 10.154 98.3169 10.0889 98.6026 10.1119C98.8218 10.1001 99.041 10.1365 99.2444 10.2185C99.4479 10.3006 99.6306 10.4262 99.7796 10.5866C99.9286 10.7469 100.04 10.938 100.106 11.1461C100.173 11.3542 100.192 11.5743 100.162 11.7907V14.6979H99.2677V12.0099C99.2677 11.2906 98.9307 10.9264 98.2991 10.9264C98.1455 10.9139 97.991 10.9349 97.8463 10.9879C97.7017 11.041 97.5705 11.1248 97.4619 11.2335C97.3533 11.3423 97.2698 11.4733 97.2175 11.6174C97.1651 11.7616 97.145 11.9153 97.1587 12.068V14.6979H96.2648L96.2648 8.43713Z" fill="black"/>
<path d="M105.374 13.482C105.253 13.8935 104.99 14.2495 104.631 14.4877C104.272 14.7258 103.841 14.831 103.412 14.7847C103.113 14.7926 102.817 14.7357 102.543 14.6182C102.269 14.5007 102.024 14.3253 101.825 14.1041C101.626 13.883 101.477 13.6214 101.39 13.3376C101.303 13.0538 101.279 12.7545 101.32 12.4605C101.28 12.1656 101.304 11.8657 101.391 11.581C101.478 11.2964 101.626 11.0336 101.824 10.8105C102.022 10.5874 102.266 10.4093 102.539 10.2881C102.812 10.1669 103.109 10.1054 103.408 10.108C104.668 10.108 105.428 10.964 105.428 12.378V12.6881H102.23V12.7379C102.216 12.9031 102.237 13.0695 102.292 13.2262C102.346 13.383 102.433 13.5267 102.546 13.6481C102.66 13.7696 102.798 13.8661 102.951 13.9315C103.104 13.9969 103.27 14.0297 103.436 14.0279C103.65 14.0534 103.867 14.0151 104.059 13.9179C104.251 13.8207 104.409 13.669 104.514 13.482L105.374 13.482ZM102.23 12.0308H104.518C104.529 11.8797 104.508 11.7279 104.457 11.5852C104.406 11.4425 104.325 11.312 104.22 11.2021C104.115 11.0923 103.988 11.0055 103.848 10.9473C103.707 10.8891 103.555 10.8609 103.403 10.8643C103.248 10.8624 103.095 10.8913 102.952 10.9492C102.809 11.0072 102.678 11.093 102.569 11.2017C102.46 11.3104 102.374 11.4398 102.315 11.5822C102.257 11.7246 102.228 11.8771 102.23 12.0308H102.23Z" fill="black"/>
</g>
<defs>
<clipPath id="clip0">
<path d="M0 0H120.365V40H0V0Z" fill="white"/>
</clipPath>
</defs>
</svg>
