<svg width="21" height="20" viewBox="0 0 21 20" fill="none" xmlns="http://www.w3.org/2000/svg">
  <path d="M16.3868 3.84137V2.67667L7.91061 1.02878C7.6747 0.982916 7.43204 0.991957 7.19984 1.05526C6.96765 1.11857 6.75163 1.23458 6.56711 1.39507C6.38259 1.55556 6.23411 1.75659 6.13221 1.98388C6.0303 2.21117 5.97748 2.45914 5.97748 2.7102V17.5596C5.97748 17.7968 6.03345 18.0303 6.14042 18.2394C6.2474 18.4485 6.40207 18.6267 6.5907 18.7582C6.77933 18.8897 6.99608 18.9705 7.2217 18.9933C7.44733 19.0161 7.67485 18.9803 7.88407 18.889L15.3285 15.6407C15.642 15.5039 15.9097 15.2731 16.098 14.9775C16.2863 14.6818 16.3868 14.3344 16.3868 13.9791V4.51645L14.6663 4.39997V12.9887C14.6663 13.2737 14.5829 13.5518 14.4274 13.7856C14.2718 14.0195 14.0516 14.198 13.7962 14.297L9.07447 16.1278V4.24416C9.07447 4.08586 9.1064 3.92934 9.16817 3.78484C9.22994 3.64033 9.32016 3.51109 9.43293 3.40556C9.5457 3.30003 9.67848 3.22059 9.8226 3.17242C9.96673 3.12425 10.1189 3.10845 10.2693 3.12603L16.3868 3.84137Z" fill="#282C33"/>
</svg>
