<svg width="20" height="20" viewBox="0 0 20 20" fill="none" xmlns="http://www.w3.org/2000/svg">
  <path d="M4.735 3.11446C4.73204 3.47891 4.62045 3.83434 4.41427 4.13595C4.2081 4.43756 3.91657 4.67186 3.57644 4.8093C3.2363 4.94674 2.86278 4.98119 2.50295 4.90829C2.14313 4.83539 1.81309 4.65841 1.55445 4.39966C1.29582 4.14091 1.12015 3.81197 1.04959 3.45429C0.979026 3.09662 1.01673 2.72622 1.15796 2.38977C1.29918 2.05333 1.5376 1.76591 1.84316 1.56373C2.14872 1.36155 2.50776 1.25366 2.875 1.25366C3.12026 1.25461 3.36292 1.30349 3.58914 1.39752C3.81535 1.49155 4.02068 1.62889 4.19341 1.80168C4.36613 1.97448 4.50286 2.17936 4.59579 2.4046C4.68871 2.62985 4.73602 2.87106 4.735 3.11446ZM4.75 6.46387H1V18.3729H4.75V6.46387ZM10.7365 6.46387H7.0105V18.3729H10.7372V12.1214C10.7372 8.64543 15.259 8.36109 15.259 12.1214V18.3729H19V10.8323C19 4.96705 12.3085 5.18067 10.7365 8.06787V6.46387Z" fill="#282C33"/>
</svg>
