<svg width="20" height="20" viewBox="0 0 20 20" fill="none" xmlns="http://www.w3.org/2000/svg">
  <path d="M19 4.01595C18.326 4.31992 17.6111 4.5193 16.879 4.60746C17.6505 4.13821 18.2277 3.39917 18.5027 2.52842C17.7778 2.96621 16.9846 3.27467 16.1575 3.44049C15.601 2.83723 14.8646 2.43756 14.0623 2.30342C13.26 2.16928 12.4366 2.30815 11.7198 2.69851C11.0029 3.08888 10.4325 3.70895 10.0971 4.46264C9.76161 5.21633 9.67978 6.06157 9.86425 6.8674C8.39604 6.7926 6.95969 6.40441 5.64848 5.72803C4.33726 5.05164 3.18048 4.1022 2.25325 2.94133C1.78119 3.76872 1.63654 4.74803 1.84872 5.68009C2.06091 6.61215 2.614 7.42697 3.3955 7.95882C2.80937 7.94 2.23617 7.7788 1.72372 7.48867C1.71313 8.36439 2.00321 9.21642 2.54391 9.89777C3.08461 10.5791 3.84202 11.0471 4.6855 11.2209C4.14155 11.3712 3.57105 11.3932 3.01751 11.285C3.25334 12.0318 3.71271 12.6848 4.33133 13.1527C4.94995 13.6207 5.69685 13.88 6.46751 13.8946C4.91964 15.1301 2.95322 15.6901 1 15.4515C2.68862 16.5556 4.65387 17.1417 6.661 17.1398C8.08361 17.149 9.49306 16.8623 10.8029 16.2973C12.1127 15.7323 13.2954 14.901 14.2782 13.8543C15.261 12.8076 16.0234 11.5676 16.5184 10.2104C17.0135 8.85311 17.2309 7.40724 17.1572 5.96144C17.8801 5.42934 18.504 4.77057 19 4.01595Z" fill="#282C33"/>
</svg>
