<svg width="62" height="62" viewBox="0 0 62 62" xmlns="http://www.w3.org/2000/svg"><title>business-man-2</title><desc>Created with Sketch.</desc><g stroke-width="2" stroke="#25AAE1" fill="none"><path d="M31 42.571c3.857 0 12.857-5.143 12.857-12.857 3.857 0 3.857-7.714 0-7.714l-1.286-6.429c-10.286 0-10.286-3.857-11.571-5.143-1.286 1.286-1.286 5.143-11.571 5.143l-1.286 6.429c-3.857 0-3.857 7.714 0 7.714 0 7.714 9 12.857 12.857 12.857zM46.4 23.931l1.314-9.645s1.286-12.857-16.714-12.857-16.714 12.857-16.714 12.857l1.317 9.645M24.461 40.036l-16.354 4.477c-4.017 1.504-6.678 5.341-6.678 9.63v6.429h59.143v-6.429c0-4.289-2.659-8.126-6.675-9.63l-16.303-4.513"/><path d="M38 50h11v6h-11z"/></g></svg>