<?xml version="1.0" encoding="UTF-8" standalone="no"?>
<svg width="198px" height="34px" viewBox="0 0 198 34" version="1.1" xmlns="http://www.w3.org/2000/svg" xmlns:xlink="http://www.w3.org/1999/xlink">
    <!-- Generator: Sketch 43.2 (39069) - http://www.bohemiancoding.com/sketch -->
    <title>typo</title>
    <desc>Created with Sketch.</desc>
    <defs></defs>
    <g id="Page-1" stroke="none" stroke-width="1" fill="none" fill-rule="evenodd">
        <g id="MENUS" transform="translate(-677.000000, -390.000000)" fill-rule="nonzero" fill="#004987">
            <g id="header-matières">
                <g id="typo" transform="translate(677.000000, 390.000000)">
                    <path d="M187.188896,7.48569444 C177.891716,7.48569444 177.133537,10.0032639 177.133537,13.5125 L177.133537,13.7453472 C177.133537,13.971875 177.318459,14.1565972 177.548638,14.1565972 L182.384826,14.1565972 C182.613058,14.1565972 182.79798,13.971875 182.79798,13.7453472 L182.79798,13.4852778 C182.79798,11.9180556 182.79798,11.68375 187.188896,11.68375 C191.581272,11.68375 191.581272,12.6613194 191.581272,14.6096528 L191.581272,14.8473611 L187.059451,14.8473611 C177.714094,14.8473611 176.971974,17.6264583 176.971974,21.2601389 L176.971974,21.6154861 C176.971974,25.6142361 178.491252,28.0934028 186.052114,28.0934028 C188.60598,28.0934028 190.417725,27.3822222 191.612903,26.6457639 L191.612903,27.3554861 C191.612903,27.5834722 191.797825,27.7681944 192.026057,27.7681944 L196.828667,27.7681944 C197.0569,27.7681944 197.241821,27.5834722 197.241821,27.3554861 L197.241821,13.8970139 C197.242794,10.3906944 196.486562,7.48569444 187.188896,7.48569444 M187.091569,23.798125 C182.634957,23.798125 182.634957,22.5881944 182.634957,21.5182639 C182.634957,20.1357639 182.634957,19.0454167 187.059451,19.0454167 L191.581272,19.0454167 L191.581272,20.9349306 C191.581759,22.9610417 191.581759,23.798125 187.091569,23.798125" id="Shape"></path>
                    <path d="M165.024575,7.48618056 C162.922308,7.48618056 161.029294,7.98347222 159.495418,8.93236111 L159.495418,8.25472222 C159.495418,8.02819444 159.310496,7.84347222 159.081777,7.84347222 L154.277707,7.84347222 C154.050935,7.84347222 153.866013,8.02819444 153.866013,8.25472222 L153.866013,33.3521528 C153.866013,33.5801389 154.050935,33.7653472 154.277707,33.7653472 L159.117301,33.7653472 C159.344074,33.7653472 159.528995,33.580625 159.528995,33.3521528 L159.528995,26.7322917 C160.754831,27.4196528 162.575823,28.0924306 165.024575,28.0924306 C172.604417,28.0924306 174.040966,25.8154861 174.040966,21.6159722 L174.040966,13.9626389 C174.040966,9.96388889 172.531421,7.48618056 165.024575,7.48618056 L165.024575,7.48618056 Z M159.529482,14.8060417 C159.529482,12.7269444 159.529482,11.78 163.953976,11.78 C168.37847,11.78 168.37847,12.7269444 168.37847,14.8060417 L168.37847,20.7720833 C168.37847,22.8511806 168.37847,23.798125 163.953976,23.798125 C159.529482,23.798125 159.529482,22.8511806 159.529482,20.7720833 L159.529482,14.8060417 Z" id="Shape"></path>
                    <path d="M142.634942,7.48569444 C140.746794,7.48569444 139.032376,7.96888889 137.529158,8.92555556 L137.529158,8.25569444 C137.529158,8.02770833 137.344236,7.84298611 137.115517,7.84298611 L132.3095,7.84298611 C132.082728,7.84298611 131.897806,8.02770833 131.897806,8.25569444 L131.897806,27.3229167 C131.897806,27.5494444 132.082728,27.735625 132.3095,27.735625 L137.147148,27.735625 C137.375381,27.735625 137.560789,27.5489583 137.560789,27.3229167 L137.560789,14.8055556 C137.560789,12.7915972 137.560789,11.7809722 141.594028,11.7809722 C145.598555,11.7809722 145.598555,12.7915972 145.598555,14.8055556 L145.598555,19.3127778 C145.598555,19.5407639 145.783476,19.7240278 146.010249,19.7240278 L150.846437,19.7240278 C151.074669,19.7240278 151.261537,19.5407639 151.261537,19.3127778 L151.261537,13.9621528 C151.262024,10.0752083 149.793357,7.48569444 142.634942,7.48569444" id="Shape"></path>
                    <path d="M118.783454,7.48520833 C109.439558,7.48520833 108.695978,10.2657639 108.695978,13.8979861 L108.695978,21.7122222 C108.695978,25.3284028 109.439558,28.0929167 118.783454,28.0929167 C127.153593,28.0929167 128.869471,25.8145139 128.869471,22.3947222 L128.869471,21.7554861 C128.869471,21.5275 128.684549,21.3427778 128.457777,21.3427778 L123.621589,21.3427778 C123.391897,21.3427778 123.207948,21.5275 123.207948,21.7554861 L123.207948,21.9052083 C123.207948,23.7597222 122.379694,23.9284028 118.783454,23.9284028 C114.35896,23.9284028 114.35896,23.0611806 114.35896,20.9675 L114.35896,19.8547917 L128.45729,19.8547917 C128.684063,19.8547917 128.868984,19.6700694 128.868984,19.4435417 L128.868984,13.8975 C128.869471,10.2657639 128.126865,7.48520833 118.783454,7.48520833 L118.783454,7.48520833 Z M114.35896,15.5940278 L114.35896,14.6101389 C114.35896,12.5388194 114.35896,11.6842361 118.783454,11.6842361 C123.207948,11.6842361 123.207948,12.5388194 123.207948,14.6101389 L123.207948,15.5940278 L114.35896,15.5940278 Z" id="Shape"></path>
                    <path d="M96.7169475,7.48569444 C94.6978949,7.48569444 92.8924756,7.96256944 91.2213677,8.93479167 L91.2213677,0.881875 C91.2213677,0.655347222 91.0344995,0.470625 90.8077272,0.470625 L85.9715392,0.470625 C85.7433069,0.470625 85.5583853,0.655347222 85.5583853,0.881875 L85.5583853,27.3234028 C85.5583853,27.5499306 85.7433069,27.7361111 85.9715392,27.7361111 L90.8077272,27.7361111 C91.0344995,27.7361111 91.2213677,27.5494444 91.2213677,27.3234028 L91.2213677,14.8055556 C91.2213677,12.7279167 91.2213677,11.7809722 95.6444018,11.7809722 C100.068896,11.7809722 100.068896,12.7279167 100.068896,14.8055556 L100.068896,27.3234028 C100.068896,27.5499306 100.253818,27.7361111 100.482536,27.7361111 L105.318724,27.7361111 C105.546957,27.7361111 105.731878,27.5494444 105.731878,27.3234028 L105.731878,13.9621528 C105.731878,9.96340278 104.223307,7.48569444 96.7169475,7.48569444" id="Shape"></path>
                    <path d="M72.4430599,0.374861111 C62.3555834,0.374861111 62.3555834,4.59381944 62.3555834,7.98347222 L62.3555834,15.9970139 C62.3555834,16.225 62.5424516,16.4102083 62.769224,16.4102083 L76.8675539,16.4102083 L76.8675539,19.6929167 C76.8675539,22.2629861 76.8675539,23.3265972 72.4430599,23.3265972 C68.0185659,23.3265972 68.0185659,22.2629861 68.0185659,19.6929167 L68.0185659,19.7502778 C68.0185659,19.52375 67.8336442,19.3370833 67.605412,19.3370833 L62.769224,19.3370833 C62.5424516,19.3370833 62.3555834,19.52375 62.3555834,19.7502778 L62.3555834,20.5873611 C62.3555834,24.8763194 63.0991631,28.1575694 72.4430599,28.1575694 C81.7869567,28.1575694 82.5305364,24.8763194 82.5305364,20.5873611 L82.5305364,11.8354167 C82.5305364,11.6088889 82.3456147,11.4222222 82.1173825,11.4222222 L68.0190525,11.4222222 L68.0190525,8.83951389 C68.0190525,6.29666667 68.0190525,5.24569444 72.4435465,5.24569444 C76.8680406,5.24569444 76.8680406,5.26659722 76.8680406,7.80944444 L76.8680406,8.16041667 C76.8680406,8.38694444 77.0529622,8.57166667 77.2816811,8.57166667 L82.1178691,8.57166667 C82.3461014,8.57166667 82.531023,8.38694444 82.531023,8.16041667 L82.531023,7.98347222 C82.5305364,4.59381944 82.5305364,0.374861111 72.4430599,0.374861111" id="Shape"></path>
                    <path d="M50.8568627,7.84347222 L46.0206747,7.84347222 C45.7924424,7.84347222 45.6075207,8.02819444 45.6075207,8.25472222 L45.6075207,18.0809722 C45.6075207,20.2208333 45.6075207,21.1055556 41.1830267,21.1055556 C36.7585327,21.1055556 36.7585327,20.1586111 36.7585327,18.0809722 L36.7585327,8.25472222 C36.7585327,8.02819444 36.5736111,7.84347222 36.3468387,7.84347222 L31.5091908,7.84347222 C31.2809585,7.84347222 31.0955502,8.02819444 31.0955502,8.25472222 L31.0955502,18.9564583 C31.0955502,23.05875 32.57687,25.4329167 40.144059,25.4329167 C42.2219945,25.4329167 44.0945696,24.9959028 45.6075207,24.1670833 C45.6026544,27.0720833 45.746212,28.6650694 44.9768406,29.1477778 C44.4405677,29.485625 43.6327521,29.6115278 41.8370654,29.6149306 C41.8195465,29.6115278 41.8020276,29.6100694 41.7825622,29.6100694 C38.9780793,29.5828472 37.3707207,29.1079167 37.3707207,28.3058333 L37.3707207,28.0793056 C37.3707207,27.8527778 37.187259,27.6680556 36.9590267,27.6680556 L32.498035,27.6680556 C32.2698028,27.6680556 32.086341,27.8527778 32.086341,28.0793056 L32.086341,28.2421528 C32.086341,32.3143056 34.2859355,33.7541667 40.7917714,33.9165278 C40.8316756,33.9291667 40.8749862,33.9374306 40.91927,33.9374306 L41.1825401,33.9408333 L41.6565235,33.9345139 L41.7728295,33.9379167 C41.7966747,33.9315972 41.8351189,33.9330556 41.8667502,33.9267361 C50.560988,33.7799306 51.26807,30.9133333 51.26807,27.4648611 L51.26807,8.25472222 C51.2685567,8.02819444 51.0850949,7.84347222 50.8568627,7.84347222" id="Shape"></path>
                    <path d="M27.4272885,0.374861111 L19.5982894,0.374861111 C19.4021751,0.374861111 19.2279594,0.504166667 19.1705364,0.692291667 L14.0851908,20.5965972 L8.96626728,0.692291667 C8.90884424,0.502708333 8.73462857,0.374861111 8.53851429,0.374861111 L0.744552995,0.374861111 C0.498801843,0.374861111 0.299281106,0.574166667 0.299281106,0.821111111 L0.299281106,27.2898611 C0.299281106,27.5353472 0.498801843,27.7361111 0.744552995,27.7361111 L5.62405161,27.7361111 C5.87126267,27.7361111 6.07078341,27.5353472 6.07078341,27.2898611 L6.07078341,8.231875 L11.0617217,27.4220833 C11.1206046,27.60875 11.2933604,27.7361111 11.4880147,27.7361111 L16.6833401,27.7361111 C16.8794544,27.7361111 17.05367,27.6068056 17.1110931,27.420625 L22.1005714,8.13319444 L22.1005714,27.2898611 C22.1005714,27.5353472 22.3000922,27.7361111 22.5473032,27.7361111 L27.4268018,27.7361111 C27.672553,27.7361111 27.8720737,27.5353472 27.8720737,27.2898611 L27.8720737,0.821111111 C27.8725604,0.574166667 27.6730396,0.374861111 27.4272885,0.374861111" id="Shape"></path>
                </g>
            </g>
        </g>
    </g>
</svg>