<?xml version="1.0" encoding="UTF-8" standalone="no"?>
<svg width="198px" height="40px" viewBox="0 0 198 40" version="1.1" xmlns="http://www.w3.org/2000/svg" xmlns:xlink="http://www.w3.org/1999/xlink">
    <!-- Generator: Sketch 43.2 (39069) - http://www.bohemiancoding.com/sketch -->
    <title>Logo</title>
    <desc>Created with Sketch.</desc>
    <defs></defs>
    <g id="Symbols" stroke="none" stroke-width="1" fill="none" fill-rule="evenodd">
        <g id="footer" transform="translate(-130.000000, -162.000000)" fill-rule="nonzero">
            <g id="Logo">
                <g transform="translate(0.000000, 133.000000)">
                    <g transform="translate(130.000000, 29.000000)">
                        <g id="My-Sherpa" transform="translate(52.000000, 0.000000)" fill="#FFFFFF">
                            <path d="M20.8659448,0.290714286 L15.1068353,0.290714286 C14.9625712,0.290714286 14.8344159,0.385714286 14.7921748,0.523928571 L11.0513311,15.1475 L7.28578697,0.523928571 C7.24354587,0.384642857 7.11539064,0.290714286 6.97112653,0.290714286 L1.23779122,0.290714286 C1.0570136,0.290714286 0.910243651,0.437142857 0.910243651,0.618571429 L0.910243651,20.065 C0.910243651,20.2453571 1.0570136,20.3928571 1.23779122,20.3928571 L4.82721137,20.3928571 C5.00906291,20.3928571 5.15583286,20.2453571 5.15583286,20.065 L5.15583286,6.06321429 L8.8272294,20.1621429 C8.87054443,20.2992857 8.99762573,20.3928571 9.14081592,20.3928571 L12.9625622,20.3928571 C13.1068263,20.3928571 13.2349815,20.2978571 13.2772226,20.1610714 L16.9475452,5.99071429 L16.9475452,20.065 C16.9475452,20.2453571 17.0943152,20.3928571 17.2761667,20.3928571 L20.8655869,20.3928571 C21.0463645,20.3928571 21.1931344,20.2453571 21.1931344,20.065 L21.1931344,0.618571429 C21.1934924,0.437142857 21.0467225,0.290714286 20.8659448,0.290714286" id="Shape"></path>
                            <path d="M53.9801088,0.290714286 C46.559635,0.290714286 46.559635,3.39035714 46.559635,5.88071429 L46.559635,11.7682143 C46.559635,11.9357143 46.6970976,12.0717857 46.8639142,12.0717857 L57.2348218,12.0717857 L57.2348218,14.4835714 C57.2348218,16.3717857 57.2348218,17.1532143 53.9801088,17.1532143 C50.7253957,17.1532143 50.7253957,16.3717857 50.7253957,14.4835714 L50.7253957,14.5257143 C50.7253957,14.3592857 50.589365,14.2221429 50.4214745,14.2221429 L46.8639142,14.2221429 C46.6970976,14.2221429 46.559635,14.3592857 46.559635,14.5257143 L46.559635,15.1407143 C46.559635,18.2917857 47.1066215,20.7025 53.9801088,20.7025 C60.853596,20.7025 61.4005825,18.2917857 61.4005825,15.1407143 L61.4005825,8.71071429 C61.4005825,8.54428571 61.2645518,8.40714286 61.0966613,8.40714286 L50.7257537,8.40714286 L50.7257537,6.50964286 C50.7257537,4.64142857 50.7257537,3.86928571 53.9804667,3.86928571 C57.2351798,3.86928571 57.2351798,3.88464286 57.2351798,5.75285714 L57.2351798,6.01071429 C57.2351798,6.17714286 57.3712105,6.31285714 57.539459,6.31285714 L61.0970193,6.31285714 C61.2649098,6.31285714 61.4009405,6.17714286 61.4009405,6.01071429 L61.4009405,5.88071429 C61.4005825,3.39035714 61.4005825,0.290714286 53.9801088,0.290714286" id="Shape"></path>
                            <path d="M71.8362837,5.515 C70.3510435,5.515 69.0229544,5.86535714 67.7936666,6.57964286 L67.7936666,0.663214286 C67.7936666,0.496785714 67.656204,0.361071429 67.4893875,0.361071429 L63.9318271,0.361071429 C63.7639366,0.361071429 63.627906,0.496785714 63.627906,0.663214286 L63.627906,20.0896429 C63.627906,20.2560714 63.7639366,20.3928571 63.9318271,20.3928571 L67.4893875,20.3928571 C67.656204,20.3928571 67.7936666,20.2557143 67.7936666,20.0896429 L67.7936666,10.8928571 C67.7936666,9.36642857 67.7936666,8.67071429 71.0473058,8.67071429 C74.3020189,8.67071429 74.3020189,9.36642857 74.3020189,10.8928571 L74.3020189,20.0896429 C74.3020189,20.2560714 74.4380495,20.3928571 74.606298,20.3928571 L78.1638584,20.3928571 C78.3317489,20.3928571 78.4677795,20.2557143 78.4677795,20.0896429 L78.4677795,10.2732143 C78.4677795,7.33535714 77.3580555,5.515 71.8362837,5.515" id="Shape"></path>
                            <path d="M88.0686819,5.51464286 C81.1951947,5.51464286 80.6482082,7.5575 80.6482082,10.2260714 L80.6482082,15.9671429 C80.6482082,18.6239286 81.1951947,20.655 88.0686819,20.655 C94.2258602,20.655 95.4880818,18.9810714 95.4880818,16.4685714 L95.4880818,15.9989286 C95.4880818,15.8314286 95.3520511,15.6957143 95.1852345,15.6957143 L91.6276742,15.6957143 C91.4587098,15.6957143 91.323395,15.8314286 91.323395,15.9989286 L91.323395,16.1089286 C91.323395,17.4714286 90.7141208,17.5953571 88.0686819,17.5953571 C84.8139689,17.5953571 84.8139689,16.9582143 84.8139689,15.42 L84.8139689,14.6025 L95.1848765,14.6025 C95.3516931,14.6025 95.4877238,14.4667857 95.4877238,14.3003571 L95.4877238,10.2257143 C95.4880818,7.5575 94.9418112,5.51464286 88.0686819,5.51464286 L88.0686819,5.51464286 Z M84.8139689,11.4721429 L84.8139689,10.7492857 C84.8139689,9.2275 84.8139689,8.59964286 88.0686819,8.59964286 C91.323395,8.59964286 91.323395,9.2275 91.323395,10.7492857 L91.323395,11.4721429 L84.8139689,11.4721429 Z" id="Shape"></path>
                            <path d="M105.614134,5.515 C104.225189,5.515 102.964042,5.87 101.858255,6.57285714 L101.858255,6.08071429 C101.858255,5.91321429 101.722225,5.7775 101.553976,5.7775 L98.0186104,5.7775 C97.8517939,5.7775 97.7157632,5.91321429 97.7157632,6.08071429 L97.7157632,20.0892857 C97.7157632,20.2557143 97.8517939,20.3925 98.0186104,20.3925 L101.577245,20.3925 C101.745135,20.3925 101.881524,20.2553571 101.881524,20.0892857 L101.881524,10.8928571 C101.881524,9.41321429 101.881524,8.67071429 104.848425,8.67071429 C107.794205,8.67071429 107.794205,9.41321429 107.794205,10.8928571 L107.794205,14.2042857 C107.794205,14.3717857 107.930236,14.5064286 108.097052,14.5064286 L111.654612,14.5064286 C111.822503,14.5064286 111.959966,14.3717857 111.959966,14.2042857 L111.959966,10.2732143 C111.960324,7.4175 110.879954,5.515 105.614134,5.515" id="Shape"></path>
                            <path d="M122.084228,5.51535714 C120.537774,5.51535714 119.145249,5.88071429 118.016911,6.57785714 L118.016911,6.08 C118.016911,5.91357143 117.88088,5.77785714 117.712632,5.77785714 L114.178698,5.77785714 C114.011881,5.77785714 113.87585,5.91357143 113.87585,6.08 L113.87585,24.5189286 C113.87585,24.6864286 114.011881,24.8225 114.178698,24.8225 L117.738764,24.8225 C117.90558,24.8225 118.041611,24.6867857 118.041611,24.5189286 L118.041611,19.6553571 C118.943351,20.1603571 120.282896,20.6546429 122.084228,20.6546429 C127.660054,20.6546429 128.716798,18.9817857 128.716798,15.8964286 L128.716798,10.2735714 C128.716798,7.33571429 127.606358,5.51535714 122.084228,5.51535714 L122.084228,5.51535714 Z M118.041969,10.8932143 C118.041969,9.36571429 118.041969,8.67 121.296682,8.67 C124.551395,8.67 124.551395,9.36571429 124.551395,10.8932143 L124.551395,15.2764286 C124.551395,16.8039286 124.551395,17.4996429 121.296682,17.4996429 C118.041969,17.4996429 118.041969,16.8039286 118.041969,15.2764286 L118.041969,10.8932143 Z" id="Shape"></path>
                            <path d="M138.388579,5.515 C131.549458,5.515 130.991732,7.36464286 130.991732,9.94285714 L130.991732,10.1139286 C130.991732,10.2803571 131.127763,10.4160714 131.297085,10.4160714 L134.854645,10.4160714 C135.022536,10.4160714 135.158567,10.2803571 135.158567,10.1139286 L135.158567,9.92285714 C135.158567,8.77142857 135.158567,8.59928571 138.388579,8.59928571 C141.619666,8.59928571 141.619666,9.3175 141.619666,10.7489286 L141.619666,10.9235714 L138.293358,10.9235714 C131.418797,10.9235714 130.872884,12.9653571 130.872884,15.635 L130.872884,15.8960714 C130.872884,18.8339286 131.990484,20.6553571 137.552349,20.6553571 C139.431004,20.6553571 140.763747,20.1328571 141.642935,19.5917857 L141.642935,20.1132143 C141.642935,20.2807143 141.778965,20.4164286 141.946856,20.4164286 L145.479716,20.4164286 C145.647606,20.4164286 145.783637,20.2807143 145.783637,20.1132143 L145.783637,10.2253571 C145.784353,7.64928571 145.228059,5.515 138.388579,5.515 M138.316984,17.4996429 C135.038645,17.4996429 135.038645,16.6107143 135.038645,15.8246429 C135.038645,14.8089286 135.038645,14.0078571 138.293358,14.0078571 L141.619666,14.0078571 L141.619666,15.3960714 C141.620024,16.8846429 141.620024,17.4996429 138.316984,17.4996429" id="Shape"></path>
                            <path d="M38.1010324,5.77785714 L34.543472,5.77785714 C34.3755815,5.77785714 34.2395508,5.91357143 34.2395508,6.08 L34.2395508,13.2992857 C34.2395508,14.8714286 34.2395508,15.5214286 30.9848378,15.5214286 C27.7301247,15.5214286 27.7301247,14.8257143 27.7301247,13.2992857 L27.7301247,6.08 C27.7301247,5.91357143 27.594094,5.77785714 27.4272774,5.77785714 L23.8686432,5.77785714 C23.7007527,5.77785714 23.564364,5.91357143 23.564364,6.08 L23.564364,13.9425 C23.564364,16.9564286 24.6540414,18.7007143 30.2205601,18.7007143 C31.7491154,18.7007143 33.1266051,18.3796429 34.2395508,17.7707143 C34.2359711,19.905 34.3415739,21.0753571 33.7756146,21.43 C33.3811256,21.6782143 32.7868863,21.7707143 31.4659568,21.7732143 C31.4530697,21.7707143 31.4401826,21.7696429 31.4258636,21.7696429 C29.3628509,21.7496429 28.1804578,21.4007143 28.1804578,20.8114286 L28.1804578,20.645 C28.1804578,20.4785714 28.0455011,20.3428571 27.8776106,20.3428571 L24.5960493,20.3428571 C24.4281588,20.3428571 24.2932021,20.4785714 24.2932021,20.645 L24.2932021,20.7646429 C24.2932021,23.7564286 25.9112513,24.8142857 30.6970255,24.9335714 C30.7263795,24.9428571 30.7582393,24.9489286 30.7908151,24.9489286 L30.9844798,24.9514286 L31.3331479,24.9467857 L31.418704,24.9492857 C31.4362448,24.9446429 31.4645249,24.9457143 31.4877933,24.9410714 C37.8833833,24.8332143 38.4035216,22.7271429 38.4035216,20.1935714 L38.4035216,6.08 C38.4038796,5.91357143 38.2689229,5.77785714 38.1010324,5.77785714" id="Shape"></path>
                        </g>
                        <g id="Shape">
                            <path d="M5.76018347,23.9232143 C5.74264267,23.8528571 5.75195003,23.7792857 5.78703163,23.7157143 L7.52715045,21.4314286 C7.63740689,21.2875 7.46844247,21.1596429 7.46844247,21.1596429 L6.01613594,20.2657143 C5.88010526,20.1825 5.83643225,20.0046429 5.91876661,19.8675 L6.44248474,18.9982143 C6.52123934,18.8682143 6.68769794,18.8189286 6.8240866,18.8882143 L8.89640666,19.925 C8.89891249,19.9260714 9.04210268,20.0103571 9.25223429,19.9517857 L11.0238549,19.455 C11.0238549,19.455 11.6603354,19.2946429 12.3988388,19.455 L16.9920222,20.4507143 L16.994528,20.4517857 L17.0274617,20.4575 C17.1180295,20.4760714 17.3704023,20.5078571 17.6285026,20.42 C17.6614363,20.4082143 17.6943701,20.3942857 17.7283777,20.3778571 C17.7484244,20.3685714 17.768471,20.3567857 17.7895915,20.3460714 C17.8132179,20.3321429 17.8389922,20.3157143 17.8622606,20.2992857 C17.8941204,20.2771429 17.9234744,20.2514286 17.9528284,20.2232143 C17.9682213,20.2092857 17.9832563,20.1964286 17.9975753,20.1810714 C18.0423222,20.1332143 18.0831314,20.0792857 18.1207189,20.0135714 C18.1217928,20.0110714 18.1232247,20.01 18.1242986,20.0078571 L21.2956034,14.4225 C21.2956034,14.4225 21.3990583,14.18 21.6127697,13.8635714 C21.9804105,13.3225 22.6824004,12.5621429 23.7967781,12.4075 L28.4884048,12.0267857 C31.5397878,8.72107143 33.740263,5.18107143 34.8872165,1.64821429 C33.0178685,0.686428571 30.5933006,0.227142857 27.520797,0.227142857 L12.4818891,0.227142857 C3.77341955,0.227142857 0.160730991,3.83142857 0.160730991,12.5185714 L0.160730991,27.3542857 C2.15071669,26.9303571 4.16432877,26.3903571 6.18402644,25.7307143 L5.76018347,23.9232143 Z M22.5596148,6.76571429 C22.9634112,6.29464286 23.5282965,6.00535714 24.1493839,5.95642857 C24.7693975,5.91321429 25.3729441,6.10178571 25.8472617,6.50464286 C26.3205052,6.9075 26.6093915,7.47 26.659866,8.08964286 C26.7608151,9.36892857 25.8028727,10.4910714 24.5216784,10.5928571 C24.4572429,10.5985714 24.3938812,10.6 24.3315935,10.6 C23.7785213,10.6 23.2490756,10.4067857 22.8241587,10.0446429 C22.3498412,9.64285714 22.060955,9.08071429 22.0115544,8.45964286 C21.9617958,7.84 22.1565344,7.24035714 22.5596148,6.76571429 L22.5596148,6.76571429 Z M8.8681266,14.1760714 C9.27657662,13.6971429 9.84969537,13.4042857 10.4790163,13.3539286 C11.1129908,13.3107143 11.7201173,13.5014286 12.2015943,13.9103571 C12.6816394,14.3192857 12.9751793,14.8896429 13.0256538,15.5175 C13.0750545,16.1464286 12.8763781,16.7567857 12.467928,17.2360714 C12.0580461,17.715 11.4852853,18.0067857 10.8559644,18.0571429 C10.7926028,18.0617857 10.7278092,18.0653571 10.6633736,18.0653571 C10.103142,18.0653571 9.56546284,17.8685714 9.13481833,17.5017857 C8.65334131,17.0928571 8.36123332,16.5214286 8.31075877,15.8935714 C8.25992626,15.2653571 8.45824467,14.6553571 8.8681266,14.1760714 L8.8681266,14.1760714 Z" fill="#006299"></path>
                            <path d="M24.3308775,10.6003571 C24.3942392,10.6003571 24.4576008,10.5978571 24.5209625,10.5932143 C25.8017988,10.4914286 26.7611731,9.36785714 26.65915,8.08892857 C26.6097494,7.47035714 26.3208632,6.90714286 25.8465457,6.50392857 C25.3722282,6.10214286 24.7697555,5.91357143 24.148668,5.95571429 C23.5275805,6.00607143 22.9641271,6.29428571 22.5599728,6.76642857 C22.1561765,7.23964286 21.9610798,7.84071429 22.0104804,8.46035714 C22.0598811,9.08 22.3487673,9.64357143 22.8230848,10.0453571 C23.2480017,10.4060714 23.7778054,10.6003571 24.3308775,10.6003571" fill="#FFFFFF"></path>
                            <path d="M10.6637316,18.0646429 C10.7270933,18.0646429 10.7918868,18.0621429 10.8563224,18.0564286 C11.4856433,18.0060714 12.0587621,17.7157143 12.468286,17.2364286 C12.876736,16.7560714 13.0754124,16.1457143 13.0249379,15.5178571 C12.9755373,14.8889286 12.6819974,14.3182143 12.2019523,13.9096429 C11.7204752,13.5007143 11.1137068,13.31 10.4793742,13.3532143 C9.85005334,13.4046429 9.2769346,13.6964286 8.86848457,14.1753571 C8.45860265,14.6557143 8.26028423,15.2646429 8.31075877,15.8939286 C8.36123332,16.5217857 8.65369929,17.0921429 9.13481833,17.5010714 C9.56582081,17.8678571 10.1035,18.0646429 10.6637316,18.0646429" fill="#FFFFFF"></path>
                            <path d="M16.7600541,33.7789286 L15.9649905,30.1828571 C15.8346874,29.5853571 15.3907978,29.4225 15.2744558,29.39 L14.0508956,29.0703571 C14.0498217,29.0703571 13.4287342,28.9085714 13.22791,29.6664286 L11.2776596,37.0264286 L11.2282589,37.2139286 L16.804085,33.9353571 C16.7958516,33.9167857 16.7854703,33.8989286 16.7818906,33.8803571 L16.7600541,33.7789286 Z" fill="#004987"></path>
                            <path d="M10.629366,37.41 L10.2420365,29.4678571 C10.190488,29.1492857 9.8346604,29.0753571 9.83358647,29.0753571 L7.12621791,28.8842857 C7.00414827,28.8725 6.90319918,28.7835714 6.87384519,28.6653571 L6.18474239,25.7321429 C4.1654027,26.3903571 2.15179062,26.9317857 0.161446942,27.3557143 L0.161446942,27.5242857 C0.161446942,34.3078571 2.38161088,37.9789286 7.49493265,39.2675 C7.5511348,39.2814286 7.60304125,39.2992857 7.66031733,39.3121429 L10.6554982,37.5514286 C10.6508445,37.5339286 10.6354516,37.5210714 10.6343776,37.5021429 L10.629366,37.41 Z" fill="#004987"></path>
                            <path d="M23.0554109,18.925 L22.9158004,18.0653571 C22.7747581,17.2067857 22.0681145,18.0653571 22.0681145,18.0653571 L19.2325907,21.4928571 C19.0224591,21.7471429 18.7793938,21.8982143 18.5610287,21.9964286 C18.5388342,22.0057143 18.5141339,22.0185714 18.4915815,22.0282143 C18.2026953,22.1464286 17.9786026,22.1617857 17.9786026,22.1617857 L14.3716416,22.4746429 C14.3716416,22.4746429 13.5991306,22.6035714 13.9699932,23.2782143 L14.7238895,25.3646429 C14.7965585,25.5403571 14.993803,25.8682143 15.2451018,26.0685714 L17.7000977,28.0142857 C17.7011716,28.0153571 18.2825238,28.5085714 18.1439873,29.25 L17.3689704,33.42 L17.330309,33.625 L23.59309,29.9410714 L23.5837827,29.7385714 L23.0554109,18.925 Z" fill="#004987"></path>
                            <path d="M34.8868585,1.64928571 C33.7384732,5.18107143 31.5383559,8.72214286 28.4866149,12.0278571 L29.3847754,11.9553571 C29.3883551,11.9542857 29.8791395,11.9075 30.3462975,11.7082143 L33.9357177,10.1832143 C34.061367,10.1328571 34.1870164,10.1657143 34.2575376,10.2792857 C34.3563388,10.4421429 34.2421447,10.5896429 34.1308143,10.6975 L31.6274918,13.045 L31.6249859,13.0439286 C31.6249859,13.0439286 31.2809715,13.3578571 30.7994945,13.5710714 L28.6108324,14.5385714 C28.6108324,14.5385714 27.9464299,14.7975 28.149402,15.7064286 L28.2585845,16.1935714 C28.2596584,16.1971429 28.3724207,16.7639286 28.8692907,17.1589286 L31.6718807,19.38 C31.6743865,19.3825 32.3362832,19.9446429 32.179132,20.7914286 L31.3726132,25.1257143 L31.3221387,25.395 L39.8415971,20.3839286 L39.8415971,20.11 L39.8415971,12.5207143 C39.8415971,6.89607143 38.3151897,3.41464286 34.8868585,1.64928571" fill="#004987"></path>
                            <path d="M29.6926343,21.8553571 C29.5422846,21.1746429 29.0375391,20.9885714 28.9036563,20.9510714 L27.5075519,20.5857143 C27.5050461,20.5846429 26.7973286,20.4007143 26.5671503,21.2675 L24.4608226,29.2189286 L24.3938812,29.4696429 L30.57218,25.8357143 L30.5252852,25.6271429 L29.6926343,21.8553571 Z" fill="#004987"></path>
                            <path d="M28.6111903,14.5385714 L30.7998524,13.5710714 C31.2813295,13.3578571 31.6253439,13.0439286 31.6253439,13.0439286 L31.6264178,13.045 L34.1308143,10.6975 C34.2425026,10.5896429 34.3563388,10.4421429 34.2564637,10.2792857 C34.1870164,10.1657143 34.061725,10.1328571 33.9360756,10.1832143 L30.3466555,11.7082143 C29.8780656,11.9075 29.3887131,11.9542857 29.3851333,11.9542857 L28.4869729,12.0267857 C23.5755492,17.3485714 16.4532691,22.0585714 7.9234293,25.1371429 C7.34350902,25.3467857 6.76466267,25.5425 6.18438442,25.7321429 L6.87241329,28.6642857 C6.90284121,28.7839286 7.00379029,28.8717857 7.12585993,28.8857143 L9.83215457,29.0753571 C9.8346604,29.0753571 10.1890561,29.1492857 10.2420365,29.4678571 L10.629366,37.41 L10.6329457,37.5014286 C10.6354516,37.52 10.6504865,37.5342857 10.6551402,37.5507143 L11.2282589,37.2132143 L11.2776596,37.0267857 L13.22791,29.6667857 C13.4287342,28.9089286 14.0498217,29.0692857 14.0508956,29.0692857 L15.2744558,29.3889286 C15.3918718,29.4228571 15.8346874,29.5857143 15.9660644,30.1817857 L16.76077,33.7778571 L16.7818906,33.8796429 C16.7865442,33.8982143 16.7958516,33.9146429 16.8055169,33.9335714 L17.330309,33.6232143 L17.3689704,33.4182143 L18.1439873,29.2492857 C18.2825238,28.5078571 17.7011716,28.0146429 17.7000977,28.0135714 L15.2451018,26.0667857 C14.993803,25.8675 14.7965585,25.5385714 14.7238895,25.3639286 L13.9699932,23.2775 C13.5991306,22.6014286 14.3716416,22.4728571 14.3716416,22.4728571 L17.9786026,22.16 C17.9786026,22.16 18.2026953,22.1460714 18.4915815,22.0275 C18.5137759,22.0167857 18.5384763,22.0053571 18.5610287,21.9946429 C18.7793938,21.8975 19.0224591,21.745 19.2325907,21.4921429 L22.0681145,18.0635714 C22.0681145,18.0635714 22.7751161,17.205 22.9158004,18.0635714 L23.0554109,18.9246429 L23.5837827,29.7378571 L23.59309,29.9392857 L24.3938812,29.4682143 L24.4608226,29.2175 L26.5671503,21.2660714 C26.7973286,20.4003571 27.5054041,20.5832143 27.5075519,20.5842857 L28.9036563,20.9496429 C29.0375391,20.9871429 29.5422846,21.1732143 29.6926343,21.8539286 L30.5249273,25.6257143 L30.5718221,25.8342857 L31.3221387,25.3925 L31.3726132,25.1242857 L32.179132,20.79 C32.3366412,19.9432143 31.6743865,19.3807143 31.6718807,19.3785714 L28.8703646,17.1564286 C28.3724207,16.7628571 28.2596584,16.1946429 28.2585845,16.1925 L28.149402,15.7053571 C27.945356,14.7971429 28.6111903,14.5385714 28.6111903,14.5385714" fill="#FFFFFF"></path>
                            <path d="M21.6116958,13.865 C21.3979844,14.1814286 21.2945295,14.4225 21.2945295,14.4225 L18.1242986,20.0089286 C18.1232247,20.0114286 18.1207189,20.0125 18.1196449,20.0146429 C18.0820575,20.0789286 18.0408903,20.1328571 17.9965014,20.1810714 C17.9825403,20.1975 17.9671474,20.2092857 17.9517544,20.2242857 C17.9224004,20.2510714 17.8930465,20.2782143 17.8626185,20.2992857 C17.8379182,20.3178571 17.8132179,20.3332143 17.7885176,20.3460714 C17.768471,20.3578571 17.7473504,20.3682143 17.7273038,20.3789286 C17.6932961,20.3942857 17.6614363,20.4092857 17.6274287,20.4210714 C17.3704023,20.5089286 17.1165976,20.4771429 17.0263878,20.4585714 L16.994528,20.4514286 L16.9909482,20.4514286 L12.3977648,19.4546429 C11.6592614,19.2953571 11.0242129,19.4546429 11.0242129,19.4546429 L9.25259227,19.9514286 C9.04138673,20.0110714 8.89783856,19.9267857 8.89569071,19.9257143 L6.82444458,18.8889286 C6.68698199,18.8196429 6.52052339,18.8689286 6.44176879,19.0003571 L5.91805066,19.8682143 C5.8357163,20.0053571 5.87938931,20.1821429 6.01541999,20.2664286 L7.46772652,21.1603571 C7.46772652,21.1603571 7.63669094,21.2882143 7.52750842,21.4321429 L5.78631568,23.7164286 C5.75230801,23.7796429 5.74156875,23.8535714 5.75946752,23.9239286 L6.18331049,25.7325 C6.76323077,25.5428571 7.34350902,25.3471429 7.9234293,25.1385714 C16.4521951,22.0589286 23.5755492,17.3475 28.4869729,12.0282143 L23.7964201,12.4089286 C22.6813265,12.5635714 21.9793366,13.3225 21.6116958,13.865" fill="#FFFFFF"></path>
                        </g>
                    </g>
                </g>
            </g>
        </g>
    </g>
</svg>